<svg xmlns="http://www.w3.org/2000/svg" width="1200" height="675" viewBox="0 0 1200 675" role="img" aria-label="Progress, offset control, and retry path">
  <defs>
    <linearGradient id="f2-bg" x1="0" y1="0" x2="1" y2="1">
      <stop offset="0" stop-color="#e0e7ff"/>
      <stop offset="0.4" stop-color="#eef2ff"/>
      <stop offset="1" stop-color="#f8fafc"/>
    </linearGradient>
    <filter id="f2-sh" x="-10%" y="-10%" width="120%" height="120%">
      <feDropShadow dx="0" dy="3" stdDeviation="5" flood-color="#4f46e5" flood-opacity="0.25"/>
    </filter>
  </defs>
  <rect width="1200" height="675" fill="url(#f2-bg)"/>
  <rect x="300" y="198" width="600" height="10" rx="5" fill="#fff" stroke="#c7d2fe" stroke-width="1.2"/>
  <rect x="300" y="198" width="220" height="10" rx="5" fill="#a5b4fc" opacity="0.9"/>
  <g fill="none" stroke="#6366f1" stroke-width="1.2" stroke-linecap="round" stroke-linejoin="round" opacity="0.38">
    <path d="M 780 200 L 810 200 A 20 20 0 0 0 820 180"/>
    <path d="M 808 186 L 822 195 L 812 200"/>
  </g>
  <g filter="url(#f2-sh)">
    <rect x="512" y="300" width="196" height="58" rx="9" fill="#4f46e5" fill-opacity="0.16"/>
    <rect x="500" y="288" width="200" height="60" rx="9" fill="#4f46e5"/>
  </g>
  <text x="600" y="327" text-anchor="middle" font-family="ui-sans-serif,system-ui,sans-serif" font-size="12" font-weight="800" fill="#fff" letter-spacing="0.12em" text-transform="uppercase">Finish</text>
  <path d="M 320 415 C 420 395 480 465 600 430 S 780 395 880 425" fill="none" stroke="#4f46e5" stroke-width="1.4" stroke-linecap="round" opacity="0.3" stroke-dasharray="5 4"/>
  <text x="600" y="550" text-anchor="middle" font-family="ui-sans-serif,system-ui,sans-serif" font-size="14" font-weight="600" fill="#64748b" letter-spacing="0.2em" text-transform="uppercase">Friction and persistence</text>
</svg>
