<svg xmlns="http://www.w3.org/2000/svg" viewBox="0 0 480 480" role="img" aria-label="Fictional Lumina S1 desk light, three-quarter view">
  <defs>
    <linearGradient id="a2" x1="0" y1="0" x2="1" y2="1">
      <stop offset="0" stop-color="#f1f5f9"/>
      <stop offset="0.5" stop-color="#eef2ff"/>
      <stop offset="1" stop-color="#e2e8f0"/>
    </linearGradient>
  </defs>
  <rect width="480" height="480" fill="url(#a2)"/>
  <ellipse cx="200" cy="300" rx="8" ry="100" fill="#4f46e5" transform="rotate(-18 200 300)" opacity="0.5"/>
  <path fill="#6366f1" d="M140 300 Q180 180 250 200 L256 198 Q190 160 150 300 Z" opacity="0.85"/>
  <ellipse cx="300" cy="360" rx="60" ry="19" fill="#1e1b4b" transform="rotate(-6 300 360)" opacity="0.9"/>
  <ellipse cx="300" cy="350" rx="50" ry="12" fill="#312e81" transform="rotate(-6 300 350)"/>
  <path d="M200 200 Q255 150 300 200 L300 196 Q255 120 200 200 Z" fill="#fff" stroke="#a5b4fc" stroke-width="1.5" transform="rotate(8 250 200)"/>
  <ellipse cx="300" cy="200" rx="8" ry="3" fill="#4f46e5" transform="rotate(8 300 200)"/>
  <text x="240" y="440" text-anchor="middle" font-family="ui-sans-serif,system-ui,sans-serif" font-size="11" fill="#94a3b8" letter-spacing="0.15em">DEMO RENDER 02</text>
</svg>
