<svg xmlns="http://www.w3.org/2000/svg" viewBox="0 0 480 480" role="img" aria-label="Fictional Lumina S1 desk light, front view">
  <defs>
    <linearGradient id="g1" x1="0.5" y1="0" x2="0.5" y2="1">
      <stop offset="0" stop-color="#f8fafc"/>
      <stop offset="0.5" stop-color="#eef2ff"/>
      <stop offset="1" stop-color="#e2e8f0"/>
    </linearGradient>
    <radialGradient id="glow" cx="0.5" cy="0.4" r="0.4">
      <stop offset="0" stop-color="#fffbeb" stop-opacity="0.9"/>
      <stop offset="0.4" stop-color="#fef3c7" stop-opacity="0.35"/>
      <stop offset="1" stop-color="#fef3c7" stop-opacity="0"/>
    </radialGradient>
    <linearGradient id="arm" x1="0" y1="0" x2="1" y2="0">
      <stop offset="0" stop-color="#a5b4fc"/>
      <stop offset="1" stop-color="#c7d2fe"/>
    </linearGradient>
  </defs>
  <rect width="480" height="480" fill="url(#g1)"/>
  <ellipse cx="240" cy="200" rx="90" ry="50" fill="url(#glow)"/>
  <path fill="url(#arm)" d="M228 210 L252 210 L256 300 L234 300 Z" opacity="0.95"/>
  <ellipse cx="240" cy="360" rx="64" ry="20" fill="#1e1b4b" opacity="0.88"/>
  <ellipse cx="240" cy="352" rx="56" ry="14" fill="#312e81" opacity="0.9"/>
  <ellipse cx="240" cy="200" rx="70" ry="12" fill="#4f46e5" transform="rotate(-2 240 200)"/>
  <ellipse cx="240" cy="200" rx="64" ry="6" fill="#a5b4fc" transform="rotate(-2 240 200)"/>
  <path d="M210 200 Q240 150 270 200 L270 196 Q240 142 210 196 Z" fill="#f8fafc" stroke="#e0e7ff" stroke-width="1.5"/>
  <path d="M220 200 Q240 162 260 200" fill="none" stroke="#c7d2fe" stroke-width="1" opacity="0.7"/>
  <text x="240" y="440" text-anchor="middle" font-family="ui-sans-serif,system-ui,sans-serif" font-size="11" fill="#94a3b8" letter-spacing="0.15em">DEMO RENDER 01</text>
</svg>
